<svg width="952" height="633" viewBox="0 0 952 633" fill="none" xmlns="http://www.w3.org/2000/svg">
<g clip-path="url(#clip0_659_152)">
<path d="M341.707 364.315C374.306 306.97 436.489 262.938 502.315 267.18C453.76 319.982 425.446 388.256 422.384 459.924C421.303 487.567 422.979 518.426 404.625 539.125C393.204 552.005 375.748 558.243 358.585 559.551C341.42 560.86 324.26 557.759 307.325 554.671L303.217 555.932C301.653 489.987 309.108 421.66 341.707 364.315Z" fill="#F0F0F0"/>
<path d="M502.416 268.561C453.739 291.994 412.232 331.13 386.753 378.86C381.244 389.179 376.554 400.127 374.508 411.701C372.461 423.281 373.891 434.305 377.846 445.303C381.462 455.358 386.325 465.224 387.434 475.983C388.603 487.323 384.43 497.927 376.919 506.342C367.73 516.638 355.388 523.019 343.103 528.839C329.462 535.301 315.191 541.797 305.529 553.857C304.359 555.319 302.16 553.417 303.328 551.958C320.138 530.974 348.912 527.03 368.865 510.127C378.175 502.24 385.165 491.499 384.724 478.913C384.338 467.908 379.332 457.73 375.583 447.58C371.646 436.924 369.683 426.209 371.095 414.847C372.539 403.224 376.811 392.071 382.031 381.656C393.805 358.169 409.918 336.605 428.376 317.965C449.59 296.539 474.313 278.899 501.475 265.81C503.157 265 504.087 267.756 502.416 268.561Z" fill="white"/>
<path d="M394.216 362.909C386.753 357.452 381.474 349.521 379.319 340.531C377.165 331.541 378.276 322.078 382.455 313.832C383.306 312.166 385.934 313.411 385.082 315.078C381.177 322.75 380.142 331.565 382.166 339.932C384.189 348.3 389.136 355.668 396.115 360.708C397.631 361.805 395.722 364 394.216 362.909Z" fill="white"/>
<path d="M375.34 440.446C394.04 437.714 411.022 428.034 422.901 413.337C424.077 411.88 426.276 413.781 425.102 415.237C412.711 430.508 395.018 440.545 375.553 443.346C373.698 443.611 373.495 440.71 375.34 440.446Z" fill="white"/>
<path d="M451.025 300.116C453.473 302.829 456.555 304.891 459.997 306.118C463.439 307.345 467.131 307.698 470.743 307.146C472.594 306.857 472.795 309.758 470.956 310.045C466.962 310.637 462.885 310.242 459.08 308.895C455.274 307.548 451.857 305.289 449.125 302.317C448.845 302.058 448.673 301.702 448.645 301.321C448.617 300.94 448.735 300.563 448.975 300.266C449.228 299.976 449.585 299.798 449.969 299.77C450.353 299.741 450.732 299.866 451.025 300.116Z" fill="white"/>
<path d="M633.292 448.083C632.142 448.296 630.991 448.51 629.83 448.745C614.373 451.694 599.181 455.893 584.405 461.302C583.256 461.702 582.097 462.125 580.962 462.557C545.501 475.967 512.838 495.844 484.633 521.179C473.419 531.27 462.989 542.2 453.433 553.874C440.237 569.996 427.211 588.527 409.967 599.04C408.181 600.157 406.327 601.162 404.415 602.049L305.078 560.845C304.899 560.639 304.71 560.454 304.53 560.246L300.488 558.782C300.939 558.146 301.42 557.496 301.871 556.859C302.131 556.489 302.413 556.128 302.673 555.757C302.853 555.513 303.035 555.27 303.184 555.039C303.243 554.958 303.304 554.877 303.355 554.818C303.503 554.588 303.666 554.389 303.805 554.182C306.485 550.538 309.195 546.907 311.936 543.289C311.945 543.267 311.945 543.267 311.977 543.253C332.927 515.737 356.359 489.728 382.994 468.102C383.795 467.452 384.605 466.778 385.452 466.147C397.512 456.466 410.342 447.786 423.816 440.195C431.207 436.063 438.803 432.307 446.574 428.942C466.67 420.287 488.002 414.846 509.788 412.82C553.22 408.787 597.457 418.689 630.768 445.973C631.619 446.672 632.45 447.362 633.292 448.083Z" fill="#F0F0F0"/>
<path d="M632.544 449.251C579.569 438.654 522.865 444.913 473.785 467.682C463.173 472.604 452.838 478.521 444.235 486.532C435.629 494.545 430.134 504.207 426.67 515.37C423.503 525.576 421.446 536.381 415.854 545.639C409.959 555.397 400.244 561.351 389.18 563.548C375.644 566.237 361.948 563.901 348.635 561.151C333.853 558.098 318.547 554.692 303.572 558.505C301.757 558.967 301.147 556.124 302.958 555.663C329.013 549.03 354.362 563.204 380.47 561.721C392.653 561.029 404.701 556.661 411.926 546.347C418.244 537.328 420.375 526.187 423.492 515.826C426.765 504.947 431.648 495.21 439.616 486.988C447.767 478.578 457.893 472.244 468.332 467.072C491.874 455.407 517.721 447.891 543.682 444.121C573.52 439.785 603.88 440.586 633.448 446.488C635.278 446.854 634.362 449.615 632.544 449.251Z" fill="white"/>
<path d="M489.348 459.439C486.675 450.589 487.235 441.078 490.927 432.603C494.62 424.128 501.205 417.241 509.506 413.173C511.189 412.355 512.538 414.932 510.853 415.75C503.116 419.524 496.983 425.94 493.56 433.839C490.138 441.738 489.652 450.6 492.19 458.826C492.74 460.614 489.895 461.217 489.348 459.439Z" fill="white"/>
<path d="M427.596 509.984C444.171 519.061 463.558 521.557 481.892 516.974C483.708 516.518 484.319 519.361 482.505 519.816C463.418 524.549 443.248 521.911 426.02 512.427C424.379 511.522 425.963 509.084 427.596 509.984Z" fill="white"/>
<path d="M572.515 443.506C572.835 447.145 574.055 450.648 576.064 453.7C578.074 456.752 580.809 459.257 584.026 460.99C585.678 461.874 584.091 464.311 582.45 463.433C578.905 461.502 575.887 458.732 573.66 455.365C571.433 451.998 570.064 448.137 569.673 444.119C569.604 443.744 569.681 443.356 569.888 443.035C570.095 442.714 570.417 442.484 570.787 442.392C571.164 442.312 571.556 442.385 571.88 442.594C572.203 442.802 572.432 443.13 572.515 443.506Z" fill="white"/>
<path d="M444.059 516.061C430.147 448.795 412.757 426.368 412.757 426.368L406.114 421.216L398.124 415.01L398.163 414.212L396.268 413.568L395.823 413.222L395.094 412.662L394.976 412.788L394.729 413.045L358.576 400.756L312.711 385.177L291.472 357.571C288.013 353.075 283.56 349.441 278.462 346.954C273.363 344.467 267.758 343.195 262.086 343.237L194.256 343.739C185.085 343.807 176.271 347.303 169.547 353.54L124.964 394.894L55.4946 428.072L55.3773 427.955L54.6478 428.476L43.9142 433.608L44.3572 435.914L37.7137 440.707C37.7137 440.707 20.3237 461.575 6.41169 524.166C2.87262 540.092 1.13056 574.256 0.501767 616.355C0.470183 618.484 0.862285 620.599 1.65526 622.576C2.44824 624.553 3.62628 626.352 5.12088 627.869C6.61549 629.387 8.39683 630.592 10.3613 631.415C12.3259 632.237 14.4343 632.661 16.5642 632.662H387.612L433.923 632.662C436.052 632.661 438.159 632.237 440.122 631.415C442.085 630.594 443.866 629.39 445.36 627.874C446.854 626.359 448.033 624.562 448.827 622.587C449.621 620.612 450.015 618.5 449.986 616.371C449.372 570.562 447.63 533.333 444.059 516.061Z" fill="#3F3D56"/>
<path d="M491.665 59.1624C477.229 59.1624 463.384 64.897 453.177 75.1047C442.969 85.3125 437.234 99.1572 437.234 113.593C437.234 128.029 442.969 141.874 453.177 152.081C463.384 162.289 477.229 168.024 491.665 168.024H897.304C911.74 168.024 925.584 162.289 935.792 152.081C946 141.874 951.734 128.029 951.734 113.593C951.734 99.1572 946 85.3125 935.792 75.1047C925.584 64.897 911.74 59.1624 897.304 59.1624H491.665Z" fill="#E5E5E5"/>
<path d="M491.665 70.178C480.151 70.178 469.108 74.752 460.966 82.8939C452.824 91.0358 448.25 102.079 448.25 113.593C448.25 125.107 452.824 136.15 460.966 144.292C469.108 152.434 480.151 157.008 491.665 157.008H897.304C908.818 157.008 919.861 152.434 928.003 144.292C936.144 136.15 940.719 125.107 940.719 113.593C940.719 102.079 936.144 91.0358 928.003 82.8939C919.861 74.752 908.818 70.178 897.304 70.178H491.665Z" fill="white"/>
<path d="M238.824 317.755C287.901 317.755 327.687 277.97 327.687 228.892C327.687 179.815 287.901 140.029 238.824 140.029C189.746 140.029 149.961 179.815 149.961 228.892C149.961 277.97 189.746 317.755 238.824 317.755Z" fill="#9E616A"/>
<path d="M216.089 313.404C215.709 312.568 215.331 311.729 214.953 310.887C215.099 310.892 215.243 310.913 215.388 310.917L216.089 313.404Z" fill="#4F4D73"/>
<path d="M147.491 144.07C151.985 140.485 157.238 137.186 162.984 137.372C168.73 137.557 174.557 142.747 173.367 148.371C183.922 129.683 200.722 115.31 220.818 107.774C240.914 100.239 263.022 100.023 283.262 107.163C297.544 112.202 311.55 122.283 314.83 137.068C315.673 140.863 315.853 145.025 318.223 148.106C321.211 151.992 326.928 152.871 331.635 151.504C331.682 151.491 331.729 151.477 331.776 151.463C332.571 151.191 333.429 151.164 334.24 151.386C335.051 151.608 335.776 152.067 336.322 152.706C336.869 153.344 337.211 154.132 337.305 154.967C337.399 155.802 337.24 156.646 336.849 157.39L332.808 164.926C337.902 166.062 343.195 165.949 348.236 164.598C349.074 164.378 349.958 164.423 350.769 164.726C351.58 165.03 352.278 165.576 352.766 166.291C353.253 167.006 353.508 167.855 353.495 168.721C353.481 169.586 353.201 170.427 352.691 171.126C339.366 189.42 317.105 201.234 294.388 201.095C278.242 200.997 261.929 195.432 246.216 199.145C240.137 200.581 234.456 203.36 229.592 207.278C224.727 211.196 220.801 216.154 218.102 221.787C215.403 227.42 213.999 233.586 213.994 239.833C213.989 246.079 215.382 252.247 218.072 257.885C213.245 252.605 203.913 253.855 198.975 259.032C194.037 264.209 192.759 271.936 193.256 279.073C194.017 289.989 198.294 300.274 202.803 310.285C165.001 309.095 129.248 282.578 117.213 246.713C105.128 210.698 117.793 167.761 147.491 144.07Z" fill="#4F4D73"/>
<path opacity="0.2" d="M87.9648 495.753L112.889 631.36L127.844 632.662L87.9648 495.753Z" fill="black"/>
<path opacity="0.2" d="M362.508 485.526L337.584 631.262L322.629 632.662L362.508 485.526Z" fill="black"/>
<path d="M168.747 98.4321C163.969 100.428 158.982 98.2407 156.891 93.2325C154.768 88.1477 156.751 82.986 161.606 80.9586C166.462 78.9309 171.36 81.1232 173.517 86.2899C175.642 91.3792 173.681 96.3721 168.747 98.4321ZM159.593 70.9501L155.794 72.5368C154.844 72.9284 153.783 72.9495 152.819 72.5959C151.855 72.2423 151.058 71.5398 150.587 70.6273L150.399 70.2597C146.311 62.8863 145.843 53.925 149.015 43.6387C151.954 34.4114 153.175 27.9219 150.72 22.0427C147.882 15.2453 141.821 13.116 134.092 16.2005C131.094 17.4523 130.14 17.4323 127.781 19.7725C127.268 20.2878 126.656 20.6944 125.983 20.9682C125.309 21.2419 124.587 21.3772 123.86 21.366C123.157 21.3577 122.463 21.208 121.819 20.9257C121.176 20.6434 120.595 20.2344 120.113 19.723C119.184 18.7374 118.663 17.436 118.656 16.0816C118.649 14.7271 119.157 13.4205 120.076 12.4256C124.041 8.27488 128.824 4.9911 134.122 2.78152C150.728 -4.15277 159.088 6.08471 162.914 15.2463C166.655 24.2074 164.551 32.5218 161.169 43.2897C158.334 52.2372 158.5 58.8672 161.719 65.4595C161.951 65.9579 162.081 66.4981 162.099 67.0477C162.118 67.5973 162.025 68.1449 161.826 68.6578C161.628 69.1706 161.328 69.638 160.944 70.0319C160.56 70.4258 160.101 70.7382 159.593 70.9501Z" fill="#6C63FF"/>
<path d="M581.266 139.553H500.559C500.302 139.554 500.048 139.505 499.811 139.409C499.573 139.312 499.358 139.169 499.176 138.988C498.994 138.807 498.849 138.593 498.751 138.356C498.652 138.119 498.602 137.865 498.602 137.609C498.602 137.352 498.652 137.099 498.751 136.862C498.849 136.625 498.994 136.41 499.176 136.23C499.358 136.049 499.573 135.906 499.811 135.809C500.048 135.712 500.302 135.663 500.559 135.665H581.266C581.779 135.668 582.27 135.875 582.632 136.239C582.994 136.603 583.197 137.095 583.197 137.609C583.197 138.122 582.994 138.615 582.632 138.979C582.27 139.343 581.779 139.549 581.266 139.553Z" fill="#6C63FF"/>
<path d="M683.649 140.201H602.942C602.685 140.202 602.431 140.153 602.194 140.057C601.956 139.96 601.74 139.817 601.558 139.636C601.377 139.455 601.232 139.24 601.134 139.004C601.035 138.767 600.984 138.513 600.984 138.257C600.984 138 601.035 137.746 601.134 137.51C601.232 137.273 601.377 137.058 601.558 136.877C601.74 136.697 601.956 136.554 602.194 136.457C602.431 136.36 602.685 136.311 602.942 136.313H683.649C683.905 136.311 684.159 136.36 684.397 136.457C684.634 136.554 684.85 136.697 685.032 136.877C685.214 137.058 685.358 137.273 685.457 137.51C685.555 137.746 685.606 138 685.606 138.257C685.606 138.513 685.555 138.767 685.457 139.004C685.358 139.24 685.214 139.455 685.032 139.636C684.85 139.817 684.634 139.96 684.397 140.057C684.159 140.153 683.905 140.202 683.649 140.201Z" fill="#6C63FF"/>
<path d="M786.028 140.849H705.321C704.808 140.845 704.317 140.639 703.955 140.275C703.594 139.91 703.391 139.418 703.391 138.905C703.391 138.391 703.594 137.899 703.955 137.535C704.317 137.171 704.808 136.964 705.321 136.961H786.028C786.285 136.959 786.539 137.008 786.776 137.105C787.014 137.202 787.23 137.345 787.412 137.525C787.593 137.706 787.738 137.921 787.836 138.158C787.935 138.394 787.986 138.648 787.986 138.905C787.986 139.161 787.935 139.415 787.836 139.652C787.738 139.888 787.593 140.103 787.412 140.284C787.23 140.465 787.014 140.608 786.776 140.704C786.539 140.801 786.285 140.85 786.028 140.849Z" fill="#6C63FF"/>
<path d="M888.411 141.497H807.704C807.191 141.493 806.7 141.287 806.338 140.923C805.976 140.558 805.773 140.066 805.773 139.553C805.773 139.039 805.976 138.547 806.338 138.183C806.7 137.818 807.191 137.612 807.704 137.609H888.411C888.924 137.612 889.416 137.818 889.777 138.183C890.139 138.547 890.342 139.039 890.342 139.553C890.342 140.066 890.139 140.558 889.777 140.923C889.416 141.287 888.924 141.493 888.411 141.497Z" fill="#6C63FF"/>
<path d="M540.734 121.662C549.019 121.662 555.734 114.947 555.734 106.662C555.734 98.3781 549.019 91.6624 540.734 91.6624C532.45 91.6624 525.734 98.3781 525.734 106.662C525.734 114.947 532.45 121.662 540.734 121.662Z" fill="#6C63FF"/>
<path d="M643.734 121.662C652.019 121.662 658.734 114.947 658.734 106.662C658.734 98.3781 652.019 91.6624 643.734 91.6624C635.45 91.6624 628.734 98.3781 628.734 106.662C628.734 114.947 635.45 121.662 643.734 121.662Z" fill="#6C63FF"/>
<path d="M746.734 121.662C755.019 121.662 761.734 114.947 761.734 106.662C761.734 98.3781 755.019 91.6624 746.734 91.6624C738.45 91.6624 731.734 98.3781 731.734 106.662C731.734 114.947 738.45 121.662 746.734 121.662Z" fill="#6C63FF"/>
<path d="M849.734 121.662C858.019 121.662 864.734 114.947 864.734 106.662C864.734 98.3781 858.019 91.6624 849.734 91.6624C841.45 91.6624 834.734 98.3781 834.734 106.662C834.734 114.947 841.45 121.662 849.734 121.662Z" fill="#6C63FF"/>
</g>
<defs>
<clipPath id="clip0_659_152">
<rect width="951.235" height="632.162" fill="white" transform="translate(0.5 0.5)"/>
</clipPath>
</defs>
</svg>
