<svg width="524" height="521" viewBox="0 0 524 521" fill="none" xmlns="http://www.w3.org/2000/svg">
<g clip-path="url(#clip0_659_126)">
<path d="M348.174 520.391H29.0311C21.4668 520.382 14.2147 517.374 8.86597 512.025C3.5172 506.676 0.508538 499.424 0.5 491.86V29.0311C0.508538 21.4668 3.5172 14.2148 8.86597 8.866C14.2147 3.51723 21.4668 0.508538 29.0311 0.5H348.174C355.738 0.508528 362.99 3.51722 368.339 8.86598C373.688 14.2147 376.696 21.4668 376.705 29.0311V491.86C376.696 499.424 373.688 506.676 368.339 512.025C362.99 517.374 355.738 520.382 348.174 520.391Z" fill="#4F4D73"/>
<path d="M348.737 502.187H28.4708C26.139 502.185 23.9035 501.257 22.2547 499.608C20.6059 497.959 19.6784 495.724 19.6758 493.392V27.4984C19.6784 25.1666 20.6059 22.9311 22.2547 21.2823C23.9035 19.6335 26.139 18.706 28.4708 18.7034H348.737C351.069 18.706 353.304 19.6335 354.953 21.2823C356.602 22.9311 357.529 25.1666 357.532 27.4984V493.392C357.529 495.724 356.602 497.959 354.953 499.608C353.304 501.257 351.069 502.185 348.737 502.187Z" fill="white"/>
<path d="M187.388 11.6648C188.729 11.6648 189.815 10.5781 189.815 9.23768C189.815 7.89721 188.729 6.81055 187.388 6.81055C186.048 6.81055 184.961 7.89721 184.961 9.23768C184.961 10.5781 186.048 11.6648 187.388 11.6648Z" fill="white"/>
<path d="M274.032 215.733L263.429 183.979L263.25 183.426L307.899 155.223L310.273 158.422L322.707 175.167L318.162 188.71L306.414 223.701L305.899 225.238L327.656 241.414C328.518 243.005 329.234 244.455 329.817 245.787C336.312 260.587 326.698 259.916 326.698 259.916L282.449 240.949L274.032 215.733Z" fill="#FFB7B7"/>
<path d="M297.455 221.644L295.504 215.798L285.931 187.103L283.937 181.121L282.262 176.115L304.093 162.321L326.911 147.912L341.719 167.856L337.231 181.228L335.049 187.725L331.677 197.775L324.911 217.927L346.667 234.103C348.314 236.99 349.613 240.061 350.539 243.253C350.917 244.585 351.097 245.965 351.072 247.35C351.107 248.058 350.992 248.767 350.734 249.427C350.475 250.088 350.079 250.687 349.573 251.184C349.066 251.68 348.459 252.064 347.793 252.309C347.128 252.554 346.417 252.655 345.709 252.605L301.461 233.638L297.455 221.644Z" fill="#FFB7B7"/>
<path opacity="0.15" d="M295.38 222.939L292.812 195.87L305.608 188.932L306.445 190.477L294.671 196.861L297.051 221.955L323.212 239.871L322.22 241.32L295.38 222.939Z" fill="black"/>
<path opacity="0.15" d="M323.29 222.032L322.246 223.445L348.647 242.951L349.691 241.539L323.29 222.032Z" fill="black"/>
<path d="M321.716 248.565L188.901 155.198L54.7305 247.695L186.9 303.507L321.716 248.565Z" fill="white"/>
<path d="M226.63 169.315L271.353 125.588L351.34 120.184L450.767 215.128L523.21 254.773L502.801 314.788L415.364 273.283C397.562 271.975 386.107 266.068 378.863 259.856C376.372 257.722 374.127 255.317 372.169 252.686C370.025 249.896 368.352 246.773 367.218 243.442L331.679 197.775L324.352 188.351L319.607 182.253L304.096 162.321L302.979 160.888L276.627 160.191L262.912 178.196L253.279 190.831C253.055 195.281 251.447 199.55 248.682 203.043C240.043 213.551 222.527 211.499 222.527 211.499L226.63 169.315Z" fill="#FFB7B7"/>
<path d="M55.2431 247.609H55.3388L110.192 271.032L185.243 303.079C185.536 303.203 185.851 303.267 186.169 303.269C186.487 303.27 186.802 303.209 187.097 303.089L264.527 270.965L320.728 247.648L320.814 247.609H320.91C321.796 247.61 322.647 247.963 323.274 248.59C323.901 249.217 324.253 250.067 324.254 250.954V396.211C324.253 397.097 323.901 397.947 323.274 398.575C322.647 399.202 321.796 399.554 320.91 399.555H55.2431C54.3564 399.554 53.5062 399.202 52.8792 398.575C52.2521 397.947 51.8994 397.097 51.8984 396.211V250.954C51.8994 250.067 52.2521 249.217 52.8792 248.59C53.5062 247.963 54.3564 247.61 55.2431 247.609Z" fill="white"/>
<path d="M55.0054 248.565C55.1029 248.565 55.1981 248.535 55.2781 248.479L187.423 156.45C187.825 156.171 188.303 156.022 188.792 156.023C189.281 156.024 189.759 156.175 190.16 156.455L321.353 248.478C321.457 248.551 321.585 248.579 321.709 248.557C321.834 248.535 321.945 248.464 322.017 248.361C322.09 248.257 322.119 248.129 322.097 248.004C322.075 247.88 322.005 247.769 321.902 247.696L190.709 155.672C190.147 155.28 189.479 155.069 188.794 155.068C188.109 155.067 187.44 155.276 186.877 155.666L54.732 247.695C54.6485 247.753 54.5858 247.836 54.553 247.933C54.5201 248.029 54.5188 248.133 54.5493 248.23C54.5798 248.327 54.6405 248.412 54.7226 248.472C54.8046 248.532 54.9037 248.565 55.0054 248.565Z" fill="#4F4D73"/>
<path d="M313.857 251.827L188.663 159.043L62.5195 258.429L182.213 329.385L247.196 314.573L313.857 251.827Z" fill="#E6E6E6"/>
<path d="M241.711 373.211H303.56C304.325 373.212 305.06 372.908 305.602 372.367C306.144 371.826 306.449 371.092 306.45 370.326C306.451 369.56 306.148 368.825 305.608 368.283C305.068 367.74 304.334 367.434 303.568 367.432H241.711C240.945 367.432 240.211 367.736 239.669 368.277C239.127 368.818 238.821 369.552 238.82 370.318C238.819 371.083 239.122 371.818 239.662 372.361C240.203 372.904 240.937 373.209 241.702 373.211H241.711Z" fill="#6C63FF"/>
<path d="M281.367 360.788H303.557C304.323 360.788 305.057 360.485 305.599 359.944C306.141 359.403 306.447 358.669 306.448 357.903C306.449 357.137 306.146 356.402 305.605 355.859C305.065 355.317 304.331 355.011 303.566 355.009H281.367C280.601 355.009 279.867 355.313 279.325 355.854C278.783 356.395 278.478 357.128 278.477 357.894C278.475 358.66 278.778 359.395 279.319 359.938C279.859 360.48 280.593 360.786 281.359 360.788H281.367Z" fill="#6C63FF"/>
<path d="M186.903 303.507C187.373 303.507 187.839 303.416 188.274 303.238L265.485 271.201V170.92C265.484 170.033 265.131 169.183 264.504 168.556C263.877 167.929 263.027 167.576 262.14 167.575H114.017C113.13 167.576 112.28 167.929 111.653 168.556C111.026 169.183 110.673 170.033 110.672 170.92V271.271L110.817 271.333L185.49 303.223C185.938 303.41 186.418 303.507 186.903 303.507Z" fill="white"/>
<path d="M185.397 303.442L110.434 271.429V170.92C110.435 169.969 110.813 169.059 111.484 168.387C112.156 167.715 113.067 167.337 114.017 167.336H262.141C263.091 167.337 264.002 167.715 264.673 168.387C265.345 169.059 265.723 169.969 265.724 170.92V271.361L188.365 303.459C187.413 303.847 186.345 303.84 185.397 303.442ZM264.769 170.92C264.768 170.223 264.491 169.555 263.998 169.062C263.505 168.57 262.837 168.292 262.141 168.292H114.017C113.32 168.292 112.652 168.57 112.16 169.062C111.667 169.555 111.39 170.223 111.389 170.92V270.798L185.771 302.562C186.483 302.861 187.285 302.866 188.001 302.576L264.769 270.722L264.769 170.92Z" fill="#4F4D73"/>
<path d="M52.6172 250.954V396.211C52.6182 397.097 52.9709 397.947 53.5979 398.575C54.225 399.202 55.0751 399.554 55.9619 399.555H321.628C322.515 399.554 323.365 399.202 323.992 398.575C324.619 397.947 324.972 397.097 324.973 396.211V250.954C324.972 250.067 324.619 249.217 323.992 248.59C323.365 247.963 322.515 247.61 321.628 247.609H321.533L321.447 247.648L265.246 270.965L187.816 303.089C187.521 303.209 187.206 303.27 186.888 303.268C186.57 303.267 186.255 303.203 185.962 303.079L110.911 271.032L56.0576 247.609H55.9619C55.0751 247.61 54.225 247.963 53.5979 248.59C52.9709 249.217 52.6182 250.067 52.6172 250.954ZM53.5728 250.954C53.5743 250.337 53.8134 249.745 54.2406 249.3C54.6677 248.855 55.25 248.592 55.8663 248.565L110.911 272.069L185.584 303.958C186.414 304.307 187.349 304.312 188.183 303.973L265.246 271.997L321.719 248.565C322.336 248.59 322.92 248.852 323.349 249.297C323.777 249.743 324.017 250.336 324.017 250.954V396.211C324.017 396.844 323.765 397.452 323.317 397.9C322.869 398.348 322.262 398.599 321.628 398.6H55.9619C55.3284 398.599 54.7208 398.348 54.2729 397.9C53.8249 397.452 53.5731 396.844 53.5728 396.211V250.954Z" fill="#4F4D73"/>
<path d="M126.983 205.06H179.543C180.556 205.06 181.529 204.658 182.246 203.941C182.962 203.224 183.365 202.252 183.365 201.238C183.365 200.224 182.962 199.252 182.246 198.535C181.529 197.818 180.556 197.415 179.543 197.415H126.983C125.969 197.415 124.997 197.818 124.28 198.535C123.563 199.252 123.16 200.224 123.16 201.238C123.16 202.252 123.563 203.224 124.28 203.941C124.997 204.658 125.969 205.06 126.983 205.06Z" fill="#6C63FF"/>
<path d="M127.014 188.815H152.338C153.352 188.815 154.324 188.412 155.041 187.695C155.758 186.978 156.161 186.006 156.161 184.992C156.161 183.978 155.758 183.006 155.041 182.289C154.324 181.572 153.352 181.169 152.338 181.169H127.014C126 181.169 125.028 181.572 124.311 182.289C123.594 183.006 123.191 183.978 123.191 184.992C123.191 186.006 123.594 186.978 124.311 187.695C125.028 188.412 126 188.815 127.014 188.815Z" fill="#6C63FF"/>
<path d="M148.768 243.286H229.041C230.055 243.286 231.027 242.883 231.744 242.166C232.461 241.449 232.864 240.477 232.864 239.463C232.864 238.449 232.461 237.477 231.744 236.76C231.027 236.043 230.055 235.641 229.041 235.641H148.768C147.754 235.641 146.782 236.043 146.065 236.76C145.348 237.477 144.945 238.449 144.945 239.463C144.945 240.477 145.348 241.449 146.065 242.166C146.782 242.883 147.754 243.286 148.768 243.286Z" fill="#CCCCCC"/>
<path d="M148.768 260.965H229.041C230.055 260.965 231.027 260.562 231.744 259.845C232.461 259.128 232.864 258.156 232.864 257.142C232.864 256.129 232.461 255.156 231.744 254.439C231.027 253.723 230.055 253.32 229.041 253.32H148.768C147.754 253.32 146.782 253.723 146.065 254.439C145.348 255.156 144.945 256.129 144.945 257.142C144.945 258.156 145.348 259.128 146.065 259.845C146.782 260.562 147.754 260.965 148.768 260.965Z" fill="#CCCCCC"/>
<path opacity="0.1" d="M335.051 187.725L350.994 186.803L414.698 265.312L392.192 261.869L378.863 259.856C376.371 257.722 374.126 255.317 372.168 252.686L357.357 248.289L350.541 243.253C350.968 244.889 335.051 187.725 335.051 187.725Z" fill="black"/>
<path d="M233.137 185.227C233.594 182.291 235.194 179.654 237.589 177.894C239.983 176.134 242.976 175.392 245.915 175.831L262.911 178.195L283.938 181.121L300.187 183.38L319.606 182.253L337.232 181.228L347.645 180.627L416.888 265.962L357.356 248.289L350.54 243.253L320.698 221.211C320.698 221.211 310.92 219.409 295.505 215.798C293.212 215.253 267.264 208.742 255.075 205.201C252.714 204.513 250.596 203.793 248.681 203.043C235.091 197.694 232.372 190.836 233.137 185.227Z" fill="#FFB7B7"/>
<path opacity="0.15" d="M242.871 195.888C242.932 195.881 248.998 195.125 251.588 190.683C253.332 187.69 253.157 183.659 251.066 178.704L252.685 178.022C255.004 183.52 255.143 188.081 253.098 191.579C250.056 196.781 243.355 197.6 243.071 197.633L242.871 195.888Z" fill="black"/>
<path opacity="0.15" d="M304.21 184.025L304.206 182.269L335.438 182.219L302.512 161.633L303.443 160.143L341.546 183.965L304.21 184.025Z" fill="black"/>
</g>
<defs>
<clipPath id="clip0_659_126">
<rect width="522.708" height="519.891" fill="white" transform="translate(0.5 0.5)"/>
</clipPath>
</defs>
</svg>
