<svg width="744" height="540" viewBox="0 0 744 540" fill="none" xmlns="http://www.w3.org/2000/svg">
<g clip-path="url(#clip0_659_2)">
<path d="M474.113 404.286V534.286H148.415C111.306 534.286 81.1133 505.126 81.1133 469.286C81.1133 433.446 111.305 404.286 148.415 404.286H474.113Z" fill="#F2F2F2"/>
<path d="M482.113 533.286C482.113 534.612 481.586 535.883 480.648 536.821C479.711 537.758 478.439 538.285 477.113 538.286H142.613C124.446 538.286 107.023 531.069 94.1765 518.223C81.3302 505.376 74.1133 487.953 74.1133 469.786C74.1133 451.619 81.3302 434.195 94.1765 421.349C107.023 408.503 124.446 401.286 142.613 401.286H477.113C478.439 401.286 479.711 401.813 480.649 402.75C481.587 403.688 482.113 404.96 482.113 406.286C482.113 407.612 481.587 408.884 480.649 409.821C479.711 410.759 478.439 411.286 477.113 411.286H142.613C127.098 411.286 112.218 417.449 101.248 428.42C90.2766 439.391 84.1133 454.271 84.1133 469.786C84.1133 485.301 90.2766 500.181 101.248 511.152C112.218 522.122 127.098 528.286 142.613 528.286H477.113C478.439 528.286 479.711 528.813 480.648 529.751C481.586 530.688 482.113 531.96 482.113 533.286Z" fill="#1C40CA"/>
<path d="M474.113 434.286H124.113C123.848 434.286 123.594 434.181 123.406 433.993C123.219 433.805 123.113 433.551 123.113 433.286C123.113 433.021 123.219 432.766 123.406 432.579C123.594 432.391 123.848 432.286 124.113 432.286H474.113C474.379 432.286 474.633 432.391 474.82 432.579C475.008 432.766 475.113 433.021 475.113 433.286C475.113 433.551 475.008 433.805 474.82 433.993C474.633 434.181 474.379 434.286 474.113 434.286Z" fill="#CCCCCC"/>
<path d="M474.113 458.286H124.113C123.848 458.286 123.594 458.181 123.406 457.993C123.219 457.805 123.113 457.551 123.113 457.286C123.113 457.021 123.219 456.766 123.406 456.579C123.594 456.391 123.848 456.286 124.113 456.286H474.113C474.379 456.286 474.633 456.391 474.82 456.579C475.008 456.766 475.113 457.021 475.113 457.286C475.113 457.551 475.008 457.805 474.82 457.993C474.633 458.181 474.379 458.286 474.113 458.286Z" fill="#CCCCCC"/>
<path d="M474.113 482.286H124.113C123.848 482.286 123.594 482.181 123.406 481.993C123.219 481.805 123.113 481.551 123.113 481.286C123.113 481.021 123.219 480.766 123.406 480.579C123.594 480.391 123.848 480.286 124.113 480.286H474.113C474.379 480.286 474.633 480.391 474.82 480.579C475.008 480.766 475.113 481.021 475.113 481.286C475.113 481.551 475.008 481.805 474.82 481.993C474.633 482.181 474.379 482.286 474.113 482.286Z" fill="#CCCCCC"/>
<path d="M474.113 506.286H124.113C123.848 506.286 123.594 506.181 123.406 505.993C123.219 505.805 123.113 505.551 123.113 505.286C123.113 505.021 123.219 504.766 123.406 504.579C123.594 504.391 123.848 504.286 124.113 504.286H474.113C474.379 504.286 474.633 504.391 474.82 504.579C475.008 504.766 475.113 505.021 475.113 505.286C475.113 505.551 475.008 505.805 474.82 505.993C474.633 506.181 474.379 506.286 474.113 506.286Z" fill="#CCCCCC"/>
<path d="M725.83 428.757L644.265 529.985L390.65 325.635C361.754 302.352 356.54 260.703 379.027 232.795C401.513 204.887 443.319 201.124 472.215 224.407L725.83 428.757Z" fill="#F2F2F2"/>
<path d="M651.123 534.226C650.29 535.258 649.082 535.917 647.764 536.059C646.446 536.201 645.125 535.814 644.092 534.982L383.624 325.11C369.477 313.711 360.438 297.16 358.495 279.097C356.552 261.034 361.864 242.938 373.262 228.792C384.661 214.645 401.212 205.606 419.275 203.663C437.338 201.72 455.434 207.032 469.58 218.431L730.049 428.303C730.56 428.715 730.986 429.223 731.301 429.8C731.616 430.376 731.815 431.009 731.885 431.662C731.955 432.315 731.897 432.976 731.712 433.606C731.527 434.236 731.219 434.824 730.807 435.335C730.395 435.847 729.886 436.272 729.31 436.587C728.733 436.902 728.1 437.1 727.447 437.17C726.794 437.24 726.134 437.18 725.503 436.995C724.873 436.81 724.286 436.502 723.775 436.09L463.306 226.217C457.324 221.394 450.451 217.796 443.078 215.629C435.706 213.463 427.979 212.77 420.338 213.59C412.698 214.411 405.294 216.728 398.55 220.411C391.805 224.093 385.852 229.068 381.031 235.052C376.21 241.035 372.615 247.91 370.451 255.283C368.287 262.657 367.597 270.384 368.421 278.024C369.244 285.664 371.565 293.067 375.25 299.81C378.935 306.553 383.912 312.504 389.898 317.323L650.366 527.195C651.398 528.028 652.058 529.236 652.2 530.554C652.341 531.872 651.954 533.193 651.123 534.226Z" fill="#CCCCCC"/>
<path d="M707.008 452.117L434.47 232.52C434.368 232.438 434.283 232.336 434.22 232.22C434.157 232.105 434.117 231.979 434.103 231.848C434.089 231.718 434.101 231.586 434.138 231.46C434.175 231.334 434.237 231.216 434.319 231.114C434.401 231.012 434.503 230.927 434.618 230.864C434.734 230.801 434.86 230.761 434.991 230.747C435.121 230.733 435.253 230.745 435.379 230.782C435.505 230.819 435.623 230.88 435.725 230.963L708.263 450.56C708.366 450.642 708.451 450.744 708.514 450.859C708.577 450.974 708.617 451.101 708.631 451.232C708.645 451.362 708.633 451.495 708.596 451.621C708.559 451.747 708.498 451.864 708.415 451.967C708.333 452.069 708.231 452.154 708.116 452.217C708 452.28 707.874 452.32 707.743 452.334C707.612 452.348 707.48 452.336 707.354 452.299C707.228 452.261 707.111 452.2 707.008 452.117Z" fill="#CCCCCC"/>
<path d="M691.953 470.806L419.415 251.208C419.208 251.042 419.077 250.8 419.049 250.537C419.02 250.273 419.098 250.009 419.264 249.803C419.431 249.597 419.672 249.465 419.935 249.436C420.199 249.408 420.463 249.485 420.669 249.651L693.208 469.248C693.31 469.331 693.395 469.432 693.458 469.548C693.521 469.663 693.561 469.789 693.575 469.92C693.589 470.051 693.578 470.183 693.541 470.309C693.504 470.435 693.442 470.553 693.36 470.655C693.277 470.758 693.175 470.843 693.06 470.906C692.945 470.969 692.818 471.008 692.687 471.022C692.557 471.036 692.425 471.024 692.299 470.987C692.172 470.95 692.055 470.888 691.953 470.806Z" fill="#CCCCCC"/>
<path d="M676.891 489.494L404.353 269.897C404.147 269.73 404.015 269.489 403.986 269.225C403.958 268.961 404.035 268.697 404.202 268.491C404.368 268.284 404.61 268.152 404.874 268.124C405.137 268.095 405.401 268.173 405.608 268.339L678.146 487.937C678.248 488.019 678.333 488.121 678.396 488.236C678.459 488.351 678.499 488.478 678.513 488.608C678.527 488.739 678.515 488.871 678.478 488.997C678.441 489.123 678.38 489.24 678.297 489.343C678.215 489.445 678.113 489.53 677.998 489.593C677.883 489.656 677.756 489.695 677.626 489.71C677.495 489.724 677.363 489.712 677.237 489.675C677.111 489.638 676.993 489.576 676.891 489.494Z" fill="#CCCCCC"/>
<path d="M661.836 508.182L389.298 288.585C389.196 288.503 389.111 288.401 389.048 288.286C388.985 288.17 388.946 288.044 388.932 287.913C388.917 287.783 388.929 287.651 388.966 287.525C389.003 287.399 389.065 287.281 389.147 287.179C389.23 287.077 389.331 286.992 389.447 286.929C389.562 286.866 389.688 286.826 389.819 286.812C389.949 286.798 390.081 286.81 390.207 286.847C390.333 286.884 390.451 286.945 390.553 287.028L663.091 506.625C663.194 506.707 663.279 506.809 663.342 506.924C663.405 507.04 663.445 507.166 663.459 507.297C663.473 507.428 663.461 507.56 663.424 507.686C663.388 507.812 663.326 507.93 663.244 508.032C663.161 508.134 663.059 508.219 662.944 508.282C662.829 508.345 662.702 508.385 662.571 508.399C662.441 508.413 662.308 508.401 662.182 508.364C662.056 508.327 661.939 508.265 661.836 508.182Z" fill="#CCCCCC"/>
<path d="M743 539.286H1C0.734784 539.286 0.480429 539.181 0.292892 538.993C0.105356 538.805 0 538.551 0 538.286C0 538.021 0.105356 537.766 0.292892 537.579C0.480429 537.391 0.734784 537.286 1 537.286H743C743.265 537.286 743.52 537.391 743.707 537.579C743.895 537.766 744 538.021 744 538.286C744 538.551 743.895 538.805 743.707 538.993C743.52 539.181 743.265 539.286 743 539.286Z" fill="#CCCCCC"/>
<path d="M338.08 390.622L326.648 390.621L321.211 346.525L338.084 346.527L338.08 390.622Z" fill="#FFB8B8"/>
<path d="M318.483 387.354H340.531V401.236H304.602C304.602 399.413 304.961 397.608 305.658 395.924C306.356 394.24 307.378 392.709 308.667 391.42C309.957 390.131 311.487 389.109 313.171 388.411C314.855 387.714 316.66 387.354 318.483 387.354Z" fill="#4F4D73"/>
<path d="M221.287 390.622L209.855 390.621L204.418 346.525L221.291 346.527L221.287 390.622Z" fill="#FFB8B8"/>
<path d="M201.687 387.354H223.734V401.236H187.805C187.805 399.413 188.164 397.608 188.861 395.924C189.559 394.24 190.582 392.709 191.871 391.42C193.16 390.131 194.69 389.109 196.374 388.411C198.058 387.714 199.864 387.354 201.687 387.354Z" fill="#4F4D73"/>
<path d="M259.473 63.533V58.533C259.473 49.9797 262.87 41.7768 268.918 35.7288C274.967 29.6807 283.169 26.283 291.723 26.283C300.276 26.283 308.479 29.6807 314.527 35.7288C320.575 41.7768 323.973 49.9797 323.973 58.533V63.533C323.973 69.6993 321.523 75.613 317.163 79.9733C312.803 84.3335 306.889 86.783 300.723 86.783H282.723C279.669 86.783 276.646 86.1817 273.825 85.0132C271.004 83.8448 268.441 82.1322 266.282 79.9733C264.123 77.8143 262.411 75.2512 261.242 72.4304C260.074 69.6096 259.473 66.5863 259.473 63.533Z" fill="#4F4D73"/>
<path d="M291.721 88.5034C305.286 88.5034 316.282 77.5071 316.282 63.9424C316.282 50.3777 305.286 39.3813 291.721 39.3813C278.157 39.3813 267.16 50.3777 267.16 63.9424C267.16 77.5071 278.157 88.5034 291.721 88.5034Z" fill="#FFB8B8"/>
<path d="M158.125 148.356C159.121 147.414 160.312 146.703 161.614 146.272C162.915 145.841 164.295 145.7 165.656 145.86C167.018 146.02 168.328 146.477 169.494 147.198C170.66 147.919 171.653 148.886 172.405 150.033L193.459 146.05L199 158.255L169.188 163.462C167.178 164.596 164.822 164.954 162.566 164.468C160.31 163.982 158.311 162.685 156.947 160.823C155.583 158.961 154.95 156.663 155.167 154.365C155.384 152.068 156.436 149.929 158.125 148.356Z" fill="#FFB8B8"/>
<path d="M272.848 104.388L238.322 127.133L180.064 145.736C179.291 145.984 178.629 146.492 178.189 147.174C177.749 147.855 177.559 148.668 177.652 149.474L178.923 160.421C178.979 160.905 179.136 161.373 179.383 161.793C179.631 162.213 179.964 162.577 180.36 162.861C180.756 163.146 181.208 163.344 181.685 163.443C182.163 163.543 182.656 163.542 183.133 163.439L237.962 151.687C240.616 151.121 243.125 150.016 245.334 148.441L284.122 120.844C285.528 119.838 286.65 118.486 287.379 116.918C288.107 115.35 288.418 113.62 288.28 111.897C288.138 110.171 287.549 108.512 286.571 107.083C285.593 105.654 284.26 104.504 282.703 103.746C281.146 102.989 279.418 102.649 277.69 102.762C275.962 102.875 274.293 103.435 272.848 104.388Z" fill="#CCCCCC"/>
<path d="M326.852 378.109C325.975 378.109 325.116 377.853 324.381 377.374C323.646 376.894 323.067 376.211 322.714 375.407L270.304 245.906C270.182 245.626 269.977 245.389 269.716 245.228C269.455 245.068 269.151 244.991 268.845 245.008C268.539 245.025 268.246 245.136 268.005 245.325C267.763 245.514 267.586 245.772 267.496 246.065L224.738 372.138C224.557 372.725 224.258 373.269 223.86 373.736C223.462 374.203 222.972 374.583 222.421 374.854C221.87 375.125 221.27 375.28 220.657 375.31C220.044 375.341 219.431 375.245 218.856 375.03L204.518 369.653C203.739 369.363 203.057 368.864 202.545 368.21C202.034 367.556 201.714 366.773 201.621 365.948C195.17 309.756 251.421 167.918 251.99 166.492L252.147 166.097L303.424 177.44L303.531 177.556C323.989 199.874 340.804 340.638 343.968 368.63C344.086 369.641 343.856 370.662 343.315 371.525C342.775 372.388 341.957 373.041 340.997 373.377L328.34 377.853C327.862 378.022 327.359 378.109 326.852 378.109Z" fill="#4F4D73"/>
<path d="M282.674 182.006C270.25 182.006 256.4 179.529 252.136 169.305L252.038 169.07L252.171 168.852C255.536 163.331 259.984 153.912 257.593 152.144C252.884 148.662 250.599 142.934 250.801 135.118C251.242 118.153 262.802 103.09 279.567 97.6359C284.247 96.1383 289.009 94.9122 293.83 93.9636C297.345 93.2544 300.973 93.3324 304.454 94.192C307.935 95.0516 311.183 96.6715 313.963 98.9353C316.779 101.214 319.054 104.088 320.627 107.351C322.2 110.613 323.03 114.184 323.059 117.806C323.235 135.937 320.444 161.189 306.147 178.526C305.477 179.33 304.544 179.873 303.514 180.057C296.636 181.301 289.664 181.953 282.674 182.006Z" fill="#CCCCCC"/>
<path d="M278.05 181.327C278.726 178.901 280.332 176.841 282.519 175.593C284.705 174.345 287.296 174.011 289.728 174.663C290.225 174.801 290.709 174.981 291.176 175.199L307.163 160.65L318.281 168.14L295.419 188.371C294.387 190.232 292.761 191.695 290.802 192.526C288.843 193.357 286.661 193.509 284.606 192.958C283.408 192.63 282.288 192.068 281.309 191.305C280.33 190.541 279.512 189.591 278.902 188.51C278.292 187.428 277.903 186.236 277.757 185.003C277.611 183.771 277.71 182.521 278.05 181.327Z" fill="#FFB8B8"/>
<path d="M304.63 181.511C303.593 181.512 302.588 181.153 301.785 180.496L295.481 175.345C294.955 174.915 294.533 174.372 294.247 173.757C293.961 173.141 293.818 172.469 293.829 171.791C293.839 171.112 294.003 170.444 294.308 169.838C294.613 169.232 295.051 168.702 295.59 168.289L322.031 148.01C322.345 147.768 322.55 147.413 322.603 147.02C322.656 146.628 322.553 146.231 322.315 145.915L305.994 124.339C304.098 121.84 303.147 118.752 303.31 115.619C303.472 112.487 304.738 109.513 306.882 107.224C309.14 104.785 312.233 103.284 315.547 103.019C318.86 102.754 322.152 103.745 324.77 105.794L324.873 105.903L341.915 130.305C343.758 131.75 345.242 133.601 346.251 135.714C347.26 137.828 347.767 140.146 347.732 142.487C347.697 144.829 347.121 147.13 346.05 149.212C344.978 151.295 343.44 153.101 341.555 154.49L307.309 180.629C306.534 181.202 305.595 181.511 304.63 181.511Z" fill="#CCCCCC"/>
<path d="M269.965 57.0331V44.8469L291.72 35.3469L312.465 44.8469V57.0331C312.465 57.5635 312.254 58.0722 311.879 58.4473C311.504 58.8224 310.995 59.0331 310.465 59.0331H271.965C271.434 59.0331 270.926 58.8224 270.551 58.4473C270.176 58.0722 269.965 57.5635 269.965 57.0331Z" fill="#4F4D73"/>
<path d="M290.723 27.8996C287.524 17.6611 294.242 5.92728 304.173 1.87461C314.105 -2.17806 325.987 0.654881 334.367 7.3505C342.747 14.0461 347.947 24.0749 350.702 34.4417C353.457 44.8084 353.98 55.6185 354.488 66.333C366.69 68.5744 374.991 83.0473 370.764 94.7114C366.537 106.375 350.891 112.17 340.086 106.074C329.281 99.9772 326.151 83.5891 333.95 73.94C337.64 69.3742 339.701 63.7079 339.807 57.8385C339.913 51.9691 338.058 46.232 334.535 41.536C331.012 36.84 326.024 33.4535 320.359 31.9128C314.695 30.3721 308.678 30.7654 303.262 33.0303C297.248 35.5452 289.702 29.0109 290.723 27.8996Z" fill="#4F4D73"/>
<path d="M153.613 101.083C139.004 100.987 124.577 97.8271 111.265 91.8078C110.473 91.4547 109.8 90.8786 109.329 90.15C108.858 89.4213 108.61 88.5714 108.613 87.7038V51.2859C108.615 50.0928 109.089 48.949 109.933 48.1054C110.776 47.2617 111.92 46.7872 113.113 46.7859H194.113C195.306 46.7872 196.45 47.2618 197.294 48.1054C198.137 48.949 198.612 50.0928 198.613 51.2859V87.7039C198.617 88.5714 198.368 89.4213 197.897 90.15C197.427 90.8787 196.754 91.4547 195.961 91.8079C182.649 97.8272 168.223 100.987 153.613 101.083Z" fill="#1C40CA"/>
<path d="M153.602 71.5799C153.002 71.5804 152.407 71.4609 151.854 71.2283L87.6218 44.1287C86.7935 43.7793 86.0888 43.1897 85.5987 42.4361C85.1085 41.6824 84.8554 40.7993 84.8718 39.9004C84.8883 39.0016 85.1737 38.1282 85.6911 37.3931C86.2086 36.6579 86.9343 36.0945 87.7749 35.7757L152.008 11.408C153.042 11.0137 154.186 11.0161 155.219 11.4148L218.591 35.7825C219.427 36.1039 220.148 36.6674 220.662 37.4008C221.175 38.1342 221.459 39.0042 221.475 39.8996C221.492 40.7949 221.241 41.6748 220.754 42.4267C220.268 43.1786 219.568 43.7683 218.745 44.1204L155.372 71.2195C154.813 71.4578 154.211 71.5804 153.602 71.5799Z" fill="#1C40CA"/>
<path d="M116.113 94.2859C119.427 94.2859 122.113 91.5996 122.113 88.2859C122.113 84.9722 119.427 82.2859 116.113 82.2859C112.8 82.2859 110.113 84.9722 110.113 88.2859C110.113 91.5996 112.8 94.2859 116.113 94.2859Z" fill="#4F4D73"/>
<path opacity="0.2" d="M218.965 40.2738L155.592 67.373C155.098 67.5842 154.566 67.6938 154.029 67.6951C153.491 67.6964 152.959 67.5894 152.464 67.3806L88.2323 40.2817C87.4256 39.9495 86.7526 39.358 86.3197 38.6006C86.0364 39.0918 85.8609 39.6375 85.8048 40.2017C85.7487 40.7658 85.8132 41.3355 85.9941 41.8728C86.175 42.4101 86.4681 42.9027 86.854 43.3181C87.2399 43.7334 87.7097 44.0619 88.2323 44.2817L152.464 71.3806C152.959 71.5894 153.491 71.6964 154.029 71.6951C154.566 71.6938 155.098 71.5842 155.592 71.373L218.965 44.2738C219.485 44.052 219.952 43.7225 220.335 43.307C220.718 42.8915 221.009 42.3994 221.188 41.8633C221.367 41.3271 221.43 40.7591 221.373 40.1967C221.317 39.6343 221.142 39.0903 220.859 38.6006C220.429 39.3519 219.763 39.9401 218.965 40.2738Z" fill="black"/>
<path d="M116.617 88.2624C116.882 88.2624 117.137 88.1571 117.324 87.9696C117.512 87.782 117.617 87.5277 117.617 87.2624V53.801L150.598 41.7859C150.864 41.7898 151.12 41.6883 151.31 41.5035C151.5 41.3188 151.609 41.066 151.613 40.8008C151.617 40.5356 151.516 40.2796 151.331 40.0893C151.146 39.899 150.893 39.7898 150.628 39.7859L117.647 51.801C117.382 51.7949 117.118 51.8428 116.871 51.9416C116.625 52.0405 116.401 52.1883 116.214 52.3762C116.024 52.5618 115.874 52.7835 115.771 53.0283C115.669 53.273 115.616 53.5357 115.617 53.801V87.2624C115.617 87.5276 115.723 87.782 115.91 87.9695C116.098 88.1571 116.352 88.2624 116.617 88.2624Z" fill="#4F4D73"/>
</g>
<defs>
<clipPath id="clip0_659_2">
<rect width="744" height="539.286" fill="white"/>
</clipPath>
</defs>
</svg>
