<svg width="692" height="500" viewBox="0 0 692 500" fill="none" xmlns="http://www.w3.org/2000/svg">
<g clip-path="url(#clip0_659_35)">
<path d="M691 496.043H1C0.734784 496.043 0.480429 495.938 0.292892 495.75C0.105356 495.563 0 495.308 0 495.043C0 494.778 0.105356 494.523 0.292892 494.336C0.480429 494.148 0.734784 494.043 1 494.043H691C691.265 494.043 691.52 494.148 691.707 494.336C691.895 494.523 692 494.778 692 495.043C692 495.308 691.895 495.563 691.707 495.75C691.52 495.938 691.265 496.043 691 496.043Z" fill="#CCCCCC"/>
<path d="M622.703 321.641H216.703C214.979 321.641 213.326 322.326 212.107 323.545C210.888 324.764 210.203 326.417 210.203 328.141C210.203 329.865 210.888 331.519 212.107 332.738C213.326 333.957 214.979 334.641 216.703 334.641H228.203V490.141C228.203 491.865 228.888 493.519 230.107 494.738C231.326 495.957 232.979 496.641 234.703 496.641C236.427 496.641 238.08 495.957 239.299 494.738C240.518 493.519 241.203 491.865 241.203 490.141L241.302 334.641H597.203V490.141C597.203 491.865 597.888 493.519 599.107 494.738C600.326 495.957 601.979 496.641 603.703 496.641C605.427 496.641 607.08 495.957 608.299 494.738C609.518 493.519 610.203 491.865 610.203 490.141V338.069L612.094 334.641H622.703C624.427 334.641 626.08 333.957 627.299 332.738C628.518 331.519 629.203 329.865 629.203 328.141C629.203 326.417 628.518 324.764 627.299 323.545C626.08 322.326 624.427 321.641 622.703 321.641Z" fill="#CCCCCC"/>
<path d="M441.796 325.043H318.814C316.433 325.04 314.15 324.093 312.466 322.409C310.782 320.726 309.835 318.443 309.832 316.061V248.352C309.835 245.971 310.782 243.688 312.466 242.004C314.15 240.32 316.433 239.373 318.814 239.37H441.796C444.177 239.373 446.46 240.32 448.144 242.004C449.828 243.688 450.775 245.971 450.777 248.352V316.061C450.775 318.443 449.828 320.726 448.144 322.409C446.46 324.093 444.177 325.04 441.796 325.043Z" fill="#4F4D73"/>
<path d="M441.792 246.283H318.812C318.263 246.284 317.738 246.503 317.35 246.891C316.962 247.279 316.743 247.805 316.742 248.353V316.063C316.743 316.612 316.962 317.138 317.35 317.526C317.738 317.914 318.263 318.132 318.812 318.133H441.792C442.341 318.132 442.867 317.914 443.255 317.526C443.643 317.138 443.861 316.612 443.862 316.063V248.353C443.861 247.805 443.643 247.279 443.255 246.891C442.867 246.503 442.341 246.284 441.792 246.283Z" fill="white"/>
<path d="M390.792 294.221C390.792 294.221 376.07 290.829 367.973 297.048C359.875 303.268 378.278 317.403 378.278 317.403L390.792 294.221Z" fill="#4F4D73"/>
<path d="M381.024 287.811C388.693 287.811 394.911 281.594 394.911 273.924C394.911 266.255 388.693 260.037 381.024 260.037C373.354 260.037 367.137 266.255 367.137 273.924C367.137 281.594 373.354 287.811 381.024 287.811Z" fill="#A0616A"/>
<path d="M370.286 254.43C371.212 252.858 372.555 251.573 374.165 250.716C375.776 249.859 377.592 249.464 379.413 249.574C381.318 249.813 383.176 250.333 384.928 251.118L394.007 254.659C396.356 255.576 398.929 256.698 399.948 259.005C400.894 261.145 400.188 263.617 399.474 265.846L396.077 276.439C395.701 274.042 395.055 271.694 394.152 269.441C393.235 267.174 391.577 265.283 389.448 264.077C387.09 262.868 384.31 262.893 381.663 263.02C377.914 263.201 373.838 263.678 371.174 266.322C369.76 267.824 368.801 269.696 368.409 271.721C368.024 273.736 367.83 275.782 367.83 277.833C366.292 275.19 364.997 272.414 363.96 269.538C363.107 267.396 362.621 265.126 362.523 262.823C362.433 260.5 363.204 258.226 364.687 256.436C365.44 255.561 366.422 254.914 367.523 254.567C368.624 254.221 369.8 254.189 370.918 254.475L370.286 254.43Z" fill="#4F4D73"/>
<path d="M414.184 306.263C414.053 305.794 413.787 305.374 413.419 305.055C413.051 304.737 412.597 304.534 412.114 304.473C412.082 304.451 412.048 304.431 412.014 304.413L391.282 292.795C390.69 292.463 389.993 292.372 389.336 292.541C388.679 292.711 388.112 293.127 387.754 293.703L382.084 302.883L373.544 294.343L373.408 294.207C372.97 293.769 372.391 293.499 371.774 293.445C371.156 293.391 370.54 293.556 370.032 293.912L352.994 305.843C352.964 305.843 352.934 305.853 352.904 305.853C352.088 305.989 351.344 306.399 350.793 307.015C350.242 307.632 349.918 308.417 349.874 309.243L349.434 318.133H417.474L414.184 306.263Z" fill="#1C40CA"/>
<path d="M452.157 316.752H439.029C439.029 316.386 438.884 316.034 438.625 315.775C438.366 315.516 438.014 315.37 437.648 315.37H433.502C433.136 315.37 432.784 315.516 432.525 315.775C432.266 316.034 432.12 316.386 432.12 316.752H427.975C427.975 316.386 427.829 316.034 427.57 315.775C427.311 315.516 426.96 315.37 426.593 315.37H422.448C422.081 315.37 421.73 315.516 421.471 315.775C421.211 316.034 421.066 316.386 421.066 316.752H416.92C416.92 316.386 416.775 316.034 416.516 315.775C416.256 315.516 415.905 315.37 415.539 315.37H411.393C411.027 315.37 410.675 315.516 410.416 315.775C410.157 316.034 410.011 316.386 410.011 316.752H405.866C405.866 316.386 405.72 316.034 405.461 315.775C405.202 315.516 404.85 315.37 404.484 315.37H400.339C399.972 315.37 399.621 315.516 399.361 315.775C399.102 316.034 398.957 316.386 398.957 316.752H394.811C394.811 316.386 394.666 316.034 394.407 315.775C394.147 315.516 393.796 315.37 393.429 315.37H389.284C388.918 315.37 388.566 315.516 388.307 315.775C388.048 316.034 387.902 316.386 387.902 316.752H383.757C383.757 316.386 383.611 316.034 383.352 315.775C383.093 315.516 382.741 315.37 382.375 315.37H378.229C377.863 315.37 377.512 315.516 377.252 315.775C376.993 316.034 376.848 316.386 376.848 316.752H372.702C372.702 316.386 372.557 316.034 372.297 315.775C372.038 315.516 371.687 315.37 371.32 315.37H367.175C366.808 315.37 366.457 315.516 366.198 315.775C365.939 316.034 365.793 316.386 365.793 316.752H361.648C361.648 316.386 361.502 316.034 361.243 315.775C360.984 315.516 360.632 315.37 360.266 315.37H356.12C355.754 315.37 355.402 315.516 355.143 315.775C354.884 316.034 354.739 316.386 354.739 316.752H350.593C350.593 316.386 350.447 316.034 350.188 315.775C349.929 315.516 349.578 315.37 349.211 315.37H345.066C344.699 315.37 344.348 315.516 344.089 315.775C343.83 316.034 343.684 316.386 343.684 316.752H339.539C339.539 316.386 339.393 316.034 339.134 315.775C338.875 315.516 338.523 315.37 338.157 315.37H334.011C333.645 315.37 333.293 315.516 333.034 315.775C332.775 316.034 332.629 316.386 332.629 316.752H328.484C328.484 316.386 328.338 316.034 328.079 315.775C327.82 315.516 327.469 315.37 327.102 315.37H322.957C322.59 315.37 322.239 315.516 321.98 315.775C321.72 316.034 321.575 316.386 321.575 316.752H308.448C307.349 316.754 306.297 317.191 305.521 317.969C304.744 318.746 304.309 319.799 304.309 320.898C304.309 321.996 304.744 323.049 305.521 323.827C306.297 324.604 307.349 325.041 308.448 325.043H452.157C453.256 325.043 454.311 324.606 455.088 323.829C455.865 323.051 456.302 321.997 456.302 320.898C456.302 319.798 455.865 318.744 455.088 317.966C454.311 317.189 453.256 316.752 452.157 316.752Z" fill="#4F4D73"/>
<path d="M287.08 292.678V320.204H218.117C216.27 320.268 214.428 319.96 212.702 319.297C210.976 318.635 209.401 317.631 208.072 316.347C206.742 315.062 205.684 313.523 204.962 311.822C204.239 310.12 203.867 308.29 203.867 306.441C203.867 304.592 204.239 302.762 204.962 301.061C205.684 299.359 206.742 297.82 208.072 296.536C209.401 295.251 210.976 294.248 212.702 293.585C214.428 292.922 216.27 292.614 218.117 292.678H287.08Z" fill="#F2F2F2"/>
<path d="M288.771 319.992C288.771 320.273 288.66 320.542 288.461 320.741C288.263 320.939 287.993 321.051 287.713 321.051H216.887C213.04 321.051 209.351 319.523 206.631 316.803C203.911 314.083 202.383 310.394 202.383 306.547C202.383 302.7 203.911 299.011 206.631 296.291C209.351 293.571 213.04 292.043 216.887 292.043H287.713C287.993 292.043 288.263 292.155 288.461 292.353C288.66 292.552 288.771 292.821 288.771 293.102C288.771 293.382 288.66 293.652 288.461 293.85C288.263 294.049 287.993 294.16 287.713 294.16H216.887C213.604 294.163 210.456 295.47 208.135 297.792C205.815 300.115 204.511 303.264 204.511 306.547C204.511 309.83 205.815 312.979 208.135 315.302C210.456 317.624 213.604 318.931 216.887 318.933H287.713C287.993 318.934 288.262 319.045 288.461 319.244C288.66 319.442 288.771 319.711 288.771 319.992Z" fill="#1C40CA"/>
<path d="M287.079 299.03H212.971C212.943 299.031 212.915 299.025 212.89 299.015C212.864 299.004 212.84 298.989 212.82 298.969C212.801 298.949 212.785 298.926 212.774 298.9C212.763 298.874 212.758 298.847 212.758 298.819C212.758 298.791 212.763 298.763 212.774 298.737C212.785 298.712 212.801 298.688 212.82 298.668C212.84 298.649 212.864 298.633 212.89 298.623C212.915 298.612 212.943 298.607 212.971 298.607H287.079C287.135 298.607 287.188 298.63 287.228 298.669C287.267 298.709 287.289 298.763 287.289 298.819C287.289 298.875 287.267 298.928 287.228 298.968C287.188 299.008 287.135 299.03 287.079 299.03Z" fill="#CCCCCC"/>
<path d="M287.079 304.112H212.971C212.943 304.112 212.915 304.107 212.89 304.096C212.864 304.086 212.84 304.07 212.82 304.05C212.801 304.031 212.785 304.007 212.774 303.982C212.763 303.956 212.758 303.928 212.758 303.9C212.758 303.872 212.763 303.845 212.774 303.819C212.785 303.793 212.801 303.77 212.82 303.75C212.84 303.73 212.864 303.715 212.89 303.704C212.915 303.694 212.943 303.688 212.971 303.688H287.079C287.135 303.689 287.188 303.711 287.228 303.751C287.267 303.791 287.289 303.844 287.289 303.9C287.289 303.956 287.267 304.01 287.228 304.049C287.188 304.089 287.135 304.112 287.079 304.112Z" fill="#CCCCCC"/>
<path d="M287.079 309.194H212.971C212.943 309.194 212.915 309.189 212.89 309.178C212.864 309.167 212.84 309.152 212.82 309.132C212.801 309.113 212.785 309.089 212.774 309.063C212.763 309.038 212.758 309.01 212.758 308.982C212.758 308.954 212.763 308.926 212.774 308.901C212.785 308.875 212.801 308.851 212.82 308.832C212.84 308.812 212.864 308.797 212.89 308.786C212.915 308.775 212.943 308.77 212.971 308.77H287.079C287.135 308.771 287.188 308.793 287.228 308.833C287.267 308.872 287.289 308.926 287.289 308.982C287.289 309.038 287.267 309.092 287.228 309.131C287.188 309.171 287.135 309.193 287.079 309.194Z" fill="#CCCCCC"/>
<path d="M287.079 314.275H212.971C212.943 314.275 212.915 314.27 212.89 314.26C212.864 314.249 212.84 314.233 212.82 314.214C212.801 314.194 212.785 314.171 212.774 314.145C212.763 314.119 212.758 314.091 212.758 314.064C212.758 314.036 212.763 314.008 212.774 313.982C212.785 313.956 212.801 313.933 212.82 313.913C212.84 313.894 212.864 313.878 212.89 313.867C212.915 313.857 212.943 313.852 212.971 313.852H287.079C287.135 313.852 287.188 313.875 287.228 313.914C287.267 313.954 287.289 314.008 287.289 314.064C287.289 314.119 287.267 314.173 287.228 314.213C287.188 314.252 287.135 314.275 287.079 314.275Z" fill="#CCCCCC"/>
<path d="M274.08 263.678V291.204H205.117C203.27 291.268 201.428 290.96 199.702 290.297C197.976 289.634 196.401 288.631 195.072 287.347C193.742 286.062 192.684 284.523 191.962 282.822C191.239 281.12 190.867 279.29 190.867 277.441C190.867 275.592 191.239 273.762 191.962 272.061C192.684 270.359 193.742 268.82 195.072 267.536C196.401 266.251 197.976 265.248 199.702 264.585C201.428 263.922 203.27 263.614 205.117 263.678H274.08Z" fill="#F2F2F2"/>
<path d="M275.771 290.992C275.771 291.273 275.66 291.542 275.461 291.741C275.263 291.939 274.993 292.051 274.713 292.051H203.887C201.982 292.051 200.096 291.676 198.336 290.947C196.577 290.218 194.978 289.15 193.631 287.803C192.284 286.456 191.216 284.857 190.487 283.097C189.758 281.338 189.383 279.452 189.383 277.547C189.383 275.642 189.758 273.756 190.487 271.996C191.216 270.237 192.284 268.638 193.631 267.291C194.978 265.944 196.577 264.876 198.336 264.147C200.096 263.418 201.982 263.043 203.887 263.043H274.713C274.993 263.043 275.263 263.155 275.461 263.353C275.66 263.552 275.771 263.821 275.771 264.102C275.771 264.382 275.66 264.652 275.461 264.85C275.263 265.049 274.993 265.16 274.713 265.16H203.887C200.604 265.163 197.456 266.47 195.135 268.792C192.815 271.115 191.511 274.264 191.511 277.547C191.511 280.83 192.815 283.979 195.135 286.302C197.456 288.624 200.604 289.931 203.887 289.933H274.713C274.993 289.934 275.262 290.045 275.461 290.244C275.66 290.442 275.771 290.711 275.771 290.992Z" fill="#4F4D73"/>
<path d="M274.079 270.03H199.971C199.943 270.031 199.915 270.025 199.89 270.015C199.864 270.004 199.84 269.989 199.82 269.969C199.801 269.949 199.785 269.926 199.774 269.9C199.763 269.874 199.758 269.847 199.758 269.819C199.758 269.791 199.763 269.763 199.774 269.737C199.785 269.712 199.801 269.688 199.82 269.668C199.84 269.649 199.864 269.633 199.89 269.623C199.915 269.612 199.943 269.607 199.971 269.607H274.079C274.135 269.607 274.188 269.63 274.228 269.669C274.267 269.709 274.289 269.763 274.289 269.819C274.289 269.875 274.267 269.928 274.228 269.968C274.188 270.008 274.135 270.03 274.079 270.03Z" fill="#CCCCCC"/>
<path d="M274.079 275.112H199.971C199.943 275.112 199.915 275.107 199.89 275.096C199.864 275.086 199.84 275.07 199.82 275.05C199.801 275.031 199.785 275.007 199.774 274.982C199.763 274.956 199.758 274.928 199.758 274.9C199.758 274.872 199.763 274.845 199.774 274.819C199.785 274.793 199.801 274.77 199.82 274.75C199.84 274.73 199.864 274.715 199.89 274.704C199.915 274.694 199.943 274.688 199.971 274.688H274.079C274.135 274.689 274.188 274.711 274.228 274.751C274.267 274.791 274.289 274.844 274.289 274.9C274.289 274.956 274.267 275.01 274.228 275.049C274.188 275.089 274.135 275.112 274.079 275.112Z" fill="#CCCCCC"/>
<path d="M274.079 280.194H199.971C199.943 280.194 199.915 280.189 199.89 280.178C199.864 280.167 199.84 280.152 199.82 280.132C199.801 280.113 199.785 280.089 199.774 280.063C199.763 280.038 199.758 280.01 199.758 279.982C199.758 279.954 199.763 279.926 199.774 279.901C199.785 279.875 199.801 279.851 199.82 279.832C199.84 279.812 199.864 279.797 199.89 279.786C199.915 279.775 199.943 279.77 199.971 279.77H274.079C274.135 279.771 274.188 279.793 274.228 279.833C274.267 279.872 274.289 279.926 274.289 279.982C274.289 280.038 274.267 280.092 274.228 280.131C274.188 280.171 274.135 280.193 274.079 280.194Z" fill="#CCCCCC"/>
<path d="M274.079 285.275H199.971C199.943 285.275 199.915 285.27 199.89 285.26C199.864 285.249 199.84 285.233 199.82 285.214C199.801 285.194 199.785 285.171 199.774 285.145C199.763 285.119 199.758 285.091 199.758 285.064C199.758 285.036 199.763 285.008 199.774 284.982C199.785 284.956 199.801 284.933 199.82 284.913C199.84 284.894 199.864 284.878 199.89 284.867C199.915 284.857 199.943 284.852 199.971 284.852H274.079C274.135 284.852 274.188 284.875 274.228 284.914C274.267 284.954 274.289 285.008 274.289 285.064C274.289 285.119 274.267 285.173 274.228 285.213C274.188 285.252 274.135 285.275 274.079 285.275Z" fill="#CCCCCC"/>
<path d="M354.305 418.043V394.043C354.305 392.982 353.883 391.965 353.133 391.215C352.383 390.464 351.366 390.043 350.305 390.043H259.305C258.244 390.043 257.226 390.464 256.476 391.215C255.726 391.965 255.305 392.982 255.305 394.043V418.043H354.305Z" fill="#CCCCCC"/>
<path d="M354.305 427.043H255.305V458.043H354.305V427.043Z" fill="#CCCCCC"/>
<path d="M255.305 467.043V491.043C255.305 492.104 255.726 493.121 256.476 493.871C257.226 494.621 258.244 495.043 259.305 495.043H350.305C351.366 495.043 352.383 494.621 353.133 493.871C353.883 493.121 354.305 492.104 354.305 491.043V467.043H255.305Z" fill="#CCCCCC"/>
<path d="M304.305 408.043C305.962 408.043 307.305 406.7 307.305 405.043C307.305 403.386 305.962 402.043 304.305 402.043C302.648 402.043 301.305 403.386 301.305 405.043C301.305 406.7 302.648 408.043 304.305 408.043Z" fill="white"/>
<path d="M304.305 448.043C305.962 448.043 307.305 446.7 307.305 445.043C307.305 443.386 305.962 442.043 304.305 442.043C302.648 442.043 301.305 443.386 301.305 445.043C301.305 446.7 302.648 448.043 304.305 448.043Z" fill="white"/>
<path d="M304.465 487.196C306.122 487.196 307.465 485.853 307.465 484.196C307.465 482.539 306.122 481.196 304.465 481.196C302.808 481.196 301.465 482.539 301.465 484.196C301.465 485.853 302.808 487.196 304.465 487.196Z" fill="white"/>
<path d="M343.08 362.678V390.204H274.117C272.27 390.268 270.428 389.96 268.702 389.297C266.976 388.635 265.401 387.631 264.071 386.347C262.742 385.062 261.684 383.523 260.962 381.822C260.239 380.12 259.867 378.29 259.867 376.441C259.867 374.592 260.239 372.763 260.962 371.061C261.684 369.359 262.742 367.82 264.071 366.536C265.401 365.251 266.976 364.248 268.702 363.585C270.428 362.922 272.27 362.614 274.117 362.678H343.08Z" fill="#F2F2F2"/>
<path d="M344.772 389.992C344.771 390.273 344.66 390.542 344.461 390.741C344.263 390.939 343.994 391.051 343.713 391.051H272.887C270.981 391.052 269.094 390.678 267.333 389.95C265.572 389.222 263.972 388.154 262.623 386.807C261.275 385.46 260.206 383.861 259.476 382.1C258.747 380.34 258.371 378.453 258.371 376.547C258.371 374.641 258.747 372.754 259.476 370.994C260.206 369.233 261.275 367.634 262.623 366.287C263.972 364.94 265.572 363.872 267.333 363.144C269.094 362.415 270.981 362.041 272.887 362.043H343.713C343.994 362.043 344.263 362.154 344.461 362.353C344.66 362.552 344.772 362.821 344.772 363.102C344.772 363.382 344.66 363.652 344.461 363.85C344.263 364.049 343.994 364.16 343.713 364.16H272.887C269.604 364.163 266.456 365.47 264.136 367.792C261.815 370.115 260.512 373.264 260.512 376.547C260.512 379.83 261.815 382.979 264.136 385.302C266.456 387.624 269.604 388.931 272.887 388.933H343.713C343.994 388.934 344.263 389.045 344.461 389.244C344.66 389.442 344.771 389.711 344.772 389.992Z" fill="#4F4D73"/>
<path d="M343.079 369.03H268.971C268.943 369.031 268.915 369.025 268.89 369.015C268.864 369.004 268.84 368.989 268.82 368.969C268.8 368.949 268.785 368.926 268.774 368.9C268.763 368.874 268.758 368.847 268.758 368.819C268.758 368.791 268.763 368.763 268.774 368.737C268.785 368.712 268.8 368.688 268.82 368.668C268.84 368.649 268.864 368.633 268.89 368.623C268.915 368.612 268.943 368.607 268.971 368.607H343.079C343.135 368.607 343.188 368.63 343.227 368.669C343.267 368.709 343.289 368.763 343.289 368.819C343.289 368.875 343.267 368.928 343.227 368.968C343.188 369.008 343.135 369.03 343.079 369.03Z" fill="#CCCCCC"/>
<path d="M343.079 374.112H268.971C268.943 374.112 268.915 374.107 268.89 374.096C268.864 374.086 268.84 374.07 268.82 374.05C268.8 374.031 268.785 374.007 268.774 373.982C268.763 373.956 268.758 373.928 268.758 373.9C268.758 373.872 268.763 373.845 268.774 373.819C268.785 373.793 268.8 373.77 268.82 373.75C268.84 373.73 268.864 373.715 268.89 373.704C268.915 373.694 268.943 373.688 268.971 373.688H343.079C343.135 373.689 343.188 373.711 343.227 373.751C343.267 373.791 343.289 373.844 343.289 373.9C343.289 373.956 343.267 374.01 343.227 374.049C343.188 374.089 343.135 374.112 343.079 374.112Z" fill="#CCCCCC"/>
<path d="M343.079 379.194H268.971C268.943 379.194 268.915 379.189 268.89 379.178C268.864 379.167 268.84 379.152 268.82 379.132C268.8 379.113 268.785 379.089 268.774 379.063C268.763 379.038 268.758 379.01 268.758 378.982C268.758 378.954 268.763 378.926 268.774 378.901C268.785 378.875 268.8 378.851 268.82 378.832C268.84 378.812 268.864 378.797 268.89 378.786C268.915 378.775 268.943 378.77 268.971 378.77H343.079C343.135 378.771 343.188 378.793 343.227 378.833C343.267 378.872 343.289 378.926 343.289 378.982C343.289 379.038 343.267 379.092 343.227 379.131C343.188 379.171 343.135 379.193 343.079 379.194Z" fill="#CCCCCC"/>
<path d="M343.079 384.275H268.971C268.943 384.275 268.915 384.27 268.89 384.26C268.864 384.249 268.84 384.233 268.82 384.214C268.8 384.194 268.785 384.171 268.774 384.145C268.763 384.119 268.758 384.091 268.758 384.064C268.758 384.036 268.763 384.008 268.774 383.982C268.785 383.956 268.8 383.933 268.82 383.913C268.84 383.894 268.864 383.878 268.89 383.867C268.915 383.857 268.943 383.852 268.971 383.852H343.079C343.135 383.852 343.188 383.875 343.227 383.914C343.267 383.954 343.289 384.008 343.289 384.064C343.289 384.119 343.267 384.173 343.227 384.213C343.188 384.252 343.135 384.275 343.079 384.275Z" fill="#CCCCCC"/>
<path d="M250.109 183.021V7.52144C250.112 5.52733 250.905 3.61554 252.315 2.20549C253.725 0.79544 255.637 0.00226824 257.631 0H396.359C398.353 0.00228144 400.265 0.795458 401.675 2.20551C403.085 3.61555 403.879 5.52733 403.881 7.52144V183.021C403.879 185.016 403.085 186.927 401.675 188.337C400.265 189.747 398.353 190.541 396.359 190.543H257.631C255.637 190.541 253.725 189.747 252.315 188.337C250.905 186.927 250.112 185.016 250.109 183.021ZM257.631 1.67143C256.08 1.67317 254.593 2.29007 253.496 3.38678C252.399 4.48349 251.783 5.97046 251.781 7.52144V183.021C251.783 184.572 252.399 186.059 253.496 187.156C254.593 188.253 256.08 188.87 257.631 188.871H396.359C397.91 188.87 399.397 188.253 400.494 187.156C401.591 186.059 402.208 184.572 402.209 183.021V7.52144C402.208 5.97046 401.591 4.48349 400.494 3.38678C399.397 2.29007 397.91 1.67317 396.359 1.67143H257.631Z" fill="#E6E6E6"/>
<path d="M334.777 80.5977V44.562C334.778 43.5649 335.175 42.609 335.88 41.904C336.585 41.199 337.541 40.8024 338.538 40.8013H369.075C370.072 40.8024 371.028 41.199 371.733 41.904C372.438 42.609 372.835 43.5649 372.836 44.562V80.5977C372.835 81.5948 372.438 82.5506 371.733 83.2557C371.028 83.9607 370.072 84.3573 369.075 84.3584H338.538C337.541 84.3573 336.585 83.9607 335.88 83.2557C335.175 82.5506 334.778 81.5948 334.777 80.5977Z" fill="#1C40CA"/>
<path d="M275.441 97.312V61.2763C275.443 60.2793 275.839 59.3233 276.544 58.6183C277.249 57.9133 278.205 57.5167 279.202 57.5156H309.739C310.736 57.5167 311.692 57.9133 312.397 58.6183C313.102 59.3233 313.499 60.2793 313.5 61.2763V97.312C313.499 98.3091 313.102 99.265 312.397 99.97C311.692 100.675 310.736 101.072 309.739 101.073H279.202C278.205 101.072 277.249 100.675 276.544 99.97C275.839 99.265 275.442 98.309 275.441 97.312Z" fill="#CCCCCC"/>
<path d="M323.074 148.291V112.255C323.075 111.258 323.472 110.302 324.177 109.597C324.882 108.892 325.838 108.495 326.835 108.494H357.372C358.369 108.495 359.325 108.892 360.03 109.597C360.735 110.302 361.132 111.258 361.133 112.255V148.291C361.132 149.288 360.735 150.244 360.03 150.949C359.325 151.654 358.369 152.05 357.372 152.051H326.835C325.838 152.05 324.882 151.654 324.177 150.949C323.472 150.244 323.075 149.288 323.074 148.291Z" fill="#FF6584"/>
<path d="M505.562 313.043H474.143C473.844 313.043 473.55 313.111 473.283 313.243L465.352 317.213C465.092 317.324 464.869 317.509 464.713 317.746C464.556 317.982 464.473 318.259 464.473 318.543C464.473 318.827 464.556 319.104 464.713 319.34C464.869 319.577 465.092 319.762 465.352 319.873L473.283 323.843C473.55 323.975 473.844 324.043 474.143 324.043H505.562C505.995 324.068 506.421 323.922 506.747 323.635C507.072 323.349 507.272 322.946 507.303 322.513V314.573C507.272 314.14 507.072 313.737 506.747 313.451C506.421 313.164 505.995 313.018 505.562 313.043Z" fill="#4F4D73"/>
<path d="M507.305 314.573V322.513C507.274 322.946 507.074 323.349 506.749 323.635C506.423 323.922 505.997 324.068 505.564 324.043H499.305V313.043H505.564C505.997 313.018 506.423 313.165 506.749 313.451C507.074 313.737 507.274 314.14 507.305 314.573Z" fill="#1C40CA"/>
<path d="M505.326 253.643C506.749 253.029 508.286 252.722 509.836 252.743C511.386 252.765 512.914 253.113 514.319 253.766C515.725 254.419 516.977 255.361 517.993 256.532C519.01 257.702 519.767 259.074 520.216 260.558C520.356 261.028 520.463 261.507 520.536 261.993L564.474 283.781L574.643 277.042L587.295 291.608L571.769 304.217C569.901 305.722 567.599 306.584 565.203 306.677C562.807 306.769 560.445 306.087 558.467 304.73L513.888 273.902C513.556 274.043 513.218 274.166 512.873 274.272C511.389 274.721 509.828 274.851 508.29 274.654C506.752 274.457 505.274 273.938 503.951 273.129C502.628 272.321 501.491 271.242 500.614 269.964C499.737 268.686 499.14 267.237 498.863 265.711C498.78 265.269 498.726 264.821 498.7 264.372C498.577 262.121 499.145 259.886 500.33 257.968C501.514 256.05 503.258 254.541 505.326 253.643Z" fill="#FFB8B8"/>
<path d="M596.84 387.792H548.83C548.83 389.172 499.35 390.292 499.35 390.292C498.574 390.876 497.866 391.547 497.24 392.292C495.361 394.533 494.334 397.366 494.34 400.292V402.292C494.341 405.606 495.658 408.785 498.002 411.129C500.346 413.473 503.525 414.79 506.84 414.792H596.84C600.154 414.789 603.332 413.471 605.676 411.127C608.019 408.784 609.337 405.606 609.34 402.292V400.292C609.335 396.978 608.017 393.801 605.674 391.458C603.33 389.115 600.154 387.796 596.84 387.792Z" fill="#4F4D73"/>
<path d="M544.617 498.295H557.617V414.295H544.617V498.295Z" fill="#4F4D73"/>
<path d="M507.617 497.838C507.617 499.243 527.317 498.382 551.617 498.382C575.918 498.382 595.617 499.243 595.617 497.838C595.617 496.434 575.918 485.295 551.617 485.295C527.317 485.295 507.617 496.434 507.617 497.838Z" fill="#4F4D73"/>
<path d="M519.354 487.993L507.095 487.992L501.262 456.195L519.356 456.196L519.354 487.993Z" fill="#FFB8B8"/>
<path d="M522.48 499.877L482.949 499.875V499.375C482.949 497.355 483.347 495.354 484.12 493.487C484.894 491.62 486.027 489.924 487.456 488.495C488.885 487.067 490.581 485.933 492.448 485.16C494.314 484.387 496.315 483.989 498.336 483.989H498.337L522.481 483.99L522.48 499.877Z" fill="#4F4D73"/>
<path d="M501.017 468.275L476.576 413.467C474.535 408.848 474.31 403.629 475.944 398.851C477.578 394.073 480.953 390.085 485.395 387.683L538.408 359.255L562.599 357.198L584.914 355.169L585.075 355.442C585.281 355.79 590.079 364.077 586.835 373.164C584.375 380.056 577.976 385.44 567.817 389.166C544.102 397.861 516.707 405.293 506.03 408.084C505.558 408.204 505.117 408.423 504.736 408.727C504.355 409.03 504.043 409.411 503.819 409.843C503.595 410.271 503.462 410.74 503.428 411.222C503.394 411.704 503.46 412.187 503.623 412.642L526.329 463.657C526.566 464.304 526.652 464.997 526.579 465.682C526.506 466.367 526.277 467.026 525.908 467.609C525.54 468.192 525.043 468.682 524.456 469.042C523.868 469.402 523.206 469.622 522.52 469.686L505.553 470.921C505.409 470.935 505.266 470.942 505.123 470.942C504.254 470.942 503.404 470.69 502.675 470.216C501.947 469.743 501.371 469.069 501.017 468.275Z" fill="#4F4D73"/>
<path d="M525.354 487.993L513.095 487.992L507.262 456.195L525.356 456.196L525.354 487.993Z" fill="#FFB8B8"/>
<path d="M528.48 499.877L488.949 499.875V499.375C488.949 497.355 489.347 495.354 490.12 493.487C490.894 491.62 492.027 489.924 493.456 488.495C494.885 487.067 496.581 485.933 498.448 485.16C500.314 484.387 502.315 483.989 504.336 483.989H504.337L528.481 483.99L528.48 499.877Z" fill="#4F4D73"/>
<path d="M508.017 471.275L483.576 416.467C481.535 411.848 481.31 406.629 482.944 401.851C484.578 397.073 487.953 393.085 492.395 390.683L545.408 362.255L569.599 360.198L591.914 358.169L592.075 358.442C592.281 358.79 597.079 367.077 593.835 376.164C591.375 383.056 584.976 388.44 574.817 392.166C551.102 400.861 523.707 408.293 513.03 411.084C512.558 411.204 512.117 411.423 511.736 411.727C511.355 412.03 511.043 412.411 510.819 412.843C510.595 413.271 510.462 413.74 510.428 414.222C510.394 414.704 510.46 415.187 510.623 415.642L533.329 466.657C533.566 467.304 533.652 467.997 533.579 468.682C533.506 469.367 533.277 470.026 532.908 470.609C532.54 471.192 532.043 471.682 531.456 472.042C530.868 472.402 530.206 472.622 529.52 472.686L512.553 473.921C512.409 473.935 512.266 473.942 512.123 473.942C511.254 473.942 510.404 473.69 509.675 473.216C508.947 472.743 508.371 472.069 508.017 471.275Z" fill="#4F4D73"/>
<path d="M495.834 303.844C485.563 290.183 477.444 275.03 471.758 258.912C471.429 257.948 471.452 256.899 471.825 255.95C472.197 255.002 472.893 254.216 473.79 253.733L508.935 234.901C509.504 234.594 510.135 234.421 510.781 234.395C511.426 234.369 512.069 234.49 512.661 234.75C513.264 235.012 513.798 235.408 514.225 235.908C514.652 236.407 514.958 236.998 515.122 237.634C519.213 253.166 526.902 267.516 537.568 279.525C538.007 280.014 538.329 280.596 538.509 281.228C538.689 281.86 538.722 282.525 538.606 283.171C538.495 283.808 538.24 284.411 537.86 284.934C537.481 285.457 536.987 285.886 536.417 286.19L501.272 305.021C500.372 305.501 499.333 305.645 498.337 305.43C497.341 305.214 496.454 304.652 495.834 303.844Z" fill="#CCCCCC"/>
<path d="M498.233 302.042C498.422 302.278 498.688 302.441 498.984 302.502C499.28 302.563 499.588 302.519 499.855 302.377L535.001 283.545C535.172 283.456 535.319 283.329 535.433 283.173C535.546 283.018 535.621 282.838 535.654 282.648C535.69 282.448 535.68 282.242 535.624 282.046C535.567 281.85 535.466 281.67 535.329 281.52C524.348 269.158 516.433 254.385 512.222 238.395C512.173 238.198 512.079 238.014 511.948 237.859C511.816 237.704 511.65 237.581 511.464 237.5C511.288 237.422 511.096 237.385 510.903 237.393C510.71 237.401 510.522 237.453 510.353 237.546L475.208 256.378C474.942 256.521 474.735 256.754 474.622 257.034C474.508 257.315 474.497 257.626 474.589 257.915C480.173 273.744 488.147 288.625 498.233 302.042Z" fill="white"/>
<path d="M612.592 298.821L585.068 309.28L578.348 290.614C577.455 288.135 577.468 285.421 578.383 282.95C579.299 280.48 581.058 278.413 583.35 277.114C585.668 275.8 588.38 275.359 590.996 275.87C593.611 276.38 595.958 277.809 597.612 279.899L612.592 298.821Z" fill="#1C40CA"/>
<path d="M542.584 372.781C542.004 372.371 541.519 371.843 541.16 371.231C540.801 370.619 540.576 369.938 540.5 369.232C536.975 336.322 539.43 310.568 548.006 290.497C549.517 287.036 551.792 283.961 554.661 281.505C557.531 279.049 560.92 277.276 564.573 276.318L586.823 275.195L586.938 275.25C591.959 277.709 596.053 281.721 598.614 286.691C601.176 291.66 602.067 297.323 601.157 302.839C594.001 321.702 588.009 341.342 592.578 357.185C592.77 357.847 592.826 358.541 592.743 359.226C592.66 359.91 592.439 360.571 592.095 361.168C591.76 361.745 591.312 362.248 590.776 362.645C590.24 363.042 589.628 363.326 588.979 363.477L546.6 373.558C545.914 373.722 545.201 373.737 544.508 373.603C543.816 373.469 543.16 373.189 542.584 372.781Z" fill="#1C40CA"/>
<path d="M579.397 266.884C592.962 266.884 603.958 255.888 603.958 242.323C603.958 228.759 592.962 217.762 579.397 217.762C565.832 217.762 554.836 228.759 554.836 242.323C554.836 255.888 565.832 266.884 579.397 266.884Z" fill="#FFB8B8"/>
<path d="M511.243 261.776L492.102 270.226C491.374 270.546 490.549 270.565 489.807 270.277C489.065 269.99 488.468 269.42 488.146 268.693L487.672 267.62C487.352 266.892 487.333 266.067 487.621 265.325C487.908 264.584 488.478 263.986 489.205 263.664L508.347 255.215C509.075 254.894 509.9 254.876 510.642 255.163C511.384 255.451 511.981 256.02 512.303 256.748L512.776 257.82C513.097 258.548 513.115 259.374 512.828 260.115C512.541 260.857 511.971 261.454 511.243 261.776Z" fill="#CCCCCC"/>
<path d="M518.243 274.776L499.102 283.226C498.374 283.546 497.549 283.565 496.807 283.277C496.065 282.99 495.468 282.42 495.146 281.693L494.672 280.62C494.352 279.892 494.333 279.067 494.621 278.325C494.908 277.584 495.478 276.986 496.205 276.664L515.347 268.215C516.075 267.894 516.9 267.876 517.642 268.163C518.384 268.451 518.981 269.02 519.303 269.748L519.776 270.82C520.097 271.548 520.115 272.374 519.828 273.115C519.541 273.857 518.971 274.454 518.243 274.776Z" fill="#CCCCCC"/>
<path d="M533.005 325.553L490.331 291.887C489.991 292.007 489.645 292.109 489.295 292.193C487.789 292.545 486.225 292.577 484.706 292.285C483.187 291.994 481.746 291.386 480.477 290.502C479.2 289.616 478.126 288.468 477.328 287.135C476.531 285.801 476.027 284.312 475.851 282.768C475.565 280.3 476.121 277.807 477.429 275.694C478.738 273.582 480.722 271.973 483.06 271.13C484.519 270.607 486.072 270.398 487.617 270.516C489.163 270.635 490.666 271.079 492.028 271.819C493.39 272.559 494.58 273.578 495.521 274.81C496.461 276.042 497.131 277.459 497.486 278.967C497.596 279.446 497.672 279.931 497.715 280.42L540.196 304.927L550.768 298.84L562.479 314.172L546.065 325.872C544.143 327.23 541.835 327.933 539.483 327.875C537.13 327.818 534.859 327.004 533.005 325.553Z" fill="#FFB8B8"/>
<path d="M567.685 318.947L543.336 302.39L554.779 286.183C556.298 284.031 558.53 282.485 561.078 281.819C563.627 281.153 566.329 281.409 568.707 282.543C571.113 283.69 573.029 285.659 574.11 288.094C575.191 290.53 575.366 293.272 574.602 295.826L567.685 318.947Z" fill="#1C40CA"/>
<path d="M570.393 238.665C564.08 242.986 555.792 247.427 549.344 242.826C545.111 239.805 543.777 234.21 545.494 229.301C548.581 220.472 557.063 216.586 565.174 213.606C575.719 209.733 587.2 206.652 598.085 209.426C608.971 212.199 618.591 222.739 616.626 233.799C615.046 242.693 606.656 250.094 607.847 259.048C609.046 268.06 619.181 272.804 628.128 274.415C637.076 276.026 647.089 276.543 653.519 282.97C661.722 291.169 659.674 305.823 651.955 314.48C644.236 323.136 632.588 327.06 621.301 329.727C606.347 333.261 590.172 335.119 575.969 329.253C561.766 323.388 550.713 307.599 554.828 292.794C556.566 286.54 560.66 281.255 564.616 276.109C568.573 270.964 572.579 265.583 574.089 259.27C575.346 254.01 574.416 247.902 570.927 243.955C570.292 243.265 569.893 242.391 569.786 241.459C569.679 240.527 569.871 239.585 570.332 238.769L570.393 238.665Z" fill="#4F4D73"/>
<path d="M109.071 357.998C102.743 360.223 95.9474 360.78 89.3406 359.616C82.7338 358.453 76.5381 355.607 71.3503 351.354C58.1383 340.264 53.996 321.995 50.6255 305.079C47.3024 288.4 43.9793 271.721 40.6562 255.043L61.5279 269.414C76.5375 279.75 91.8853 290.416 102.278 305.386C112.671 320.355 117.207 340.791 108.857 356.989" fill="#E6E6E6"/>
<path d="M107.29 418.577C109.402 403.189 111.575 387.604 110.093 372.052C108.777 358.24 104.563 344.749 95.984 333.688C91.4303 327.828 85.8893 322.806 79.6102 318.85C77.9728 317.817 76.4657 320.412 78.096 321.441C88.9607 328.307 97.3642 338.447 102.095 350.397C107.32 363.687 108.159 378.173 107.258 392.29C106.714 400.828 105.56 409.309 104.397 417.779C104.305 418.162 104.363 418.566 104.557 418.909C104.752 419.251 105.069 419.507 105.445 419.625C105.828 419.728 106.237 419.676 106.583 419.48C106.928 419.284 107.182 418.959 107.29 418.577Z" fill="#F2F2F2"/>
<path d="M86.9402 391.349C84.2259 395.474 80.4948 398.831 76.1065 401.096C71.7182 403.361 66.8206 404.457 61.8855 404.28C49.2023 403.678 38.6286 394.826 29.1103 386.422L0.957031 361.565L19.5898 360.673C32.9895 360.032 46.7348 359.434 59.4974 363.566C72.2601 367.698 84.0305 377.643 86.3642 390.853" fill="#E6E6E6"/>
<path d="M113.258 427.422C103.09 409.431 91.2968 389.436 70.2234 383.045C64.364 381.274 58.22 380.64 52.1224 381.176C50.2006 381.342 50.6805 384.305 52.5988 384.139C62.8198 383.29 73.0211 385.989 81.4853 391.781C89.6302 397.325 95.9718 405.033 101.339 413.207C104.627 418.213 107.572 423.432 110.518 428.644C111.459 430.31 114.211 429.108 113.258 427.422Z" fill="#F2F2F2"/>
<path d="M129.549 446.359C129.206 442.39 127.781 438.59 125.428 435.375C123.076 432.159 119.886 429.651 116.206 428.123V417.722H98.7612V428.45C95.2626 430.054 92.2516 432.556 90.0353 435.702C87.819 438.848 86.4766 442.525 86.145 446.359L82.043 494.043H133.651L129.549 446.359Z" fill="#F2F2F2"/>
</g>
<defs>
<clipPath id="clip0_659_35">
<rect width="692" height="499.877" fill="white"/>
</clipPath>
</defs>
</svg>
